<?xml version="1.0" encoding="UTF-8"?><svg xmlns="http://www.w3.org/2000/svg" xmlns:xlink="http://www.w3.org/1999/xlink" contentScriptType="text/ecmascript" width="375" zoomAndPan="magnify" contentStyleType="text/css" viewBox="0 0 375 374.999991" height="374.999991" preserveAspectRatio="xMidYMid meet" version="1.0"><defs><clipPath id="clip-0"><path d="M 13.800781 243.019531 L 121.175781 243.019531 L 121.175781 371.15625 L 13.800781 371.15625 Z M 13.800781 243.019531 " clip-rule="nonzero"/></clipPath><clipPath id="clip-1"><path d="M 120.894531 276 L 200.351562 276 L 200.351562 371.15625 L 120.894531 371.15625 Z M 120.894531 276 " clip-rule="nonzero"/></clipPath><clipPath id="clip-2"><path d="M 120.894531 243.019531 L 200.351562 243.019531 L 200.351562 255 L 120.894531 255 Z M 120.894531 243.019531 " clip-rule="nonzero"/></clipPath><clipPath id="clip-3"><path d="M 200.253906 243.019531 L 300.472656 243.019531 L 300.472656 371.15625 L 200.253906 371.15625 Z M 200.253906 243.019531 " clip-rule="nonzero"/></clipPath><clipPath id="clip-4"><path d="M 185.394531 161.386719 L 237.34375 161.386719 L 237.34375 236.328125 L 185.394531 236.328125 Z M 185.394531 161.386719 " clip-rule="nonzero"/></clipPath><clipPath id="clip-5"><path d="M 138.058594 161.386719 L 189.15625 161.386719 L 189.15625 236.328125 L 138.058594 236.328125 Z M 138.058594 161.386719 " clip-rule="nonzero"/></clipPath><clipPath id="clip-6"><path d="M 94.0625 0.59375 L 255.300781 0.59375 L 255.300781 160.945312 L 94.0625 160.945312 Z M 94.0625 0.59375 " clip-rule="nonzero"/></clipPath><clipPath id="clip-7"><path d="M 265.261719 0.59375 L 281 0.59375 L 281 160.945312 L 265.261719 160.945312 Z M 265.261719 0.59375 " clip-rule="nonzero"/></clipPath><clipPath id="clip-8"><path d="M 294 0.59375 L 374.832031 0.59375 L 374.832031 160.945312 L 294 160.945312 Z M 294 0.59375 " clip-rule="nonzero"/></clipPath></defs><path fill="rgb(3.919983%, 4.309082%, 3.919983%)" d="M 67.484375 301.144531 C 64.203125 301.144531 61.539062 303.796875 61.539062 307.066406 C 61.539062 310.339844 64.203125 312.992188 67.484375 312.992188 C 70.765625 312.992188 73.429688 310.339844 73.429688 307.066406 C 73.429688 303.796875 70.765625 301.144531 67.484375 301.144531 " fill-opacity="1" fill-rule="nonzero"/><g clip-path="url(#clip-0)"><path fill="rgb(3.919983%, 4.309082%, 3.919983%)" d="M 56.710938 360.335938 L 54.082031 360.335938 L 24.796875 322.335938 L 24.796875 253.796875 L 56.710938 253.796875 C 86.191406 253.796875 110.171875 277.695312 110.171875 307.066406 C 110.171875 336.441406 86.191406 360.335938 56.710938 360.335938 Z M 24.796875 340.058594 L 40.425781 360.335938 L 24.796875 360.335938 Z M 56.710938 243.007812 L 13.964844 243.007812 L 13.964844 371.128906 L 56.710938 371.128906 C 92.160156 371.128906 121.003906 342.390625 121.003906 307.066406 C 121.003906 271.742188 92.160156 243.007812 56.710938 243.007812 " fill-opacity="1" fill-rule="nonzero"/></g><g clip-path="url(#clip-1)"><path fill="rgb(3.919983%, 4.309082%, 3.919983%)" d="M 147.949219 359.394531 L 132.660156 359.394531 L 132.660156 339.523438 Z M 120.898438 359.394531 L 120.898438 371.128906 L 200.300781 371.128906 L 200.300781 359.394531 L 162.773438 359.394531 L 132.660156 320.257812 L 132.660156 288.691406 L 200.300781 288.691406 L 200.300781 276.957031 L 120.898438 276.957031 L 120.898438 359.394531 " fill-opacity="1" fill-rule="nonzero"/></g><g clip-path="url(#clip-2)"><path fill="rgb(3.919983%, 4.309082%, 3.919983%)" d="M 120.898438 243.003906 L 120.898438 254.738281 L 200.300781 254.738281 L 200.300781 243.003906 L 120.898438 243.003906 " fill-opacity="1" fill-rule="nonzero"/></g><path fill="rgb(3.919983%, 4.309082%, 3.919983%)" d="M 243.921875 307.105469 C 243.921875 303.566406 246.804688 300.695312 250.359375 300.695312 C 253.914062 300.695312 256.796875 303.566406 256.796875 307.105469 C 256.796875 310.644531 253.914062 313.515625 250.359375 313.515625 C 246.804688 313.515625 243.921875 310.644531 243.921875 307.105469 " fill-opacity="1" fill-rule="nonzero"/><g clip-path="url(#clip-3)"><path fill="rgb(3.919983%, 4.309082%, 3.919983%)" d="M 258.894531 371.175781 L 300.371094 243.03125 L 288.050781 243.03125 L 250.359375 359.476562 L 212.667969 243.03125 L 200.347656 243.03125 L 241.824219 371.175781 L 258.894531 371.175781 " fill-opacity="1" fill-rule="nonzero"/></g><path fill="rgb(11.369324%, 12.548828%, 11.759949%)" d="M 207.585938 174.0625 C 207.585938 171.996094 209.28125 170.324219 211.367188 170.324219 C 213.457031 170.324219 215.152344 171.996094 215.152344 174.0625 C 215.152344 176.125 213.457031 177.800781 211.367188 177.800781 C 209.28125 177.800781 207.585938 176.125 207.585938 174.0625 " fill-opacity="1" fill-rule="nonzero"/><g clip-path="url(#clip-4)"><path fill="rgb(11.369324%, 12.548828%, 11.759949%)" d="M 214.8125 199.738281 L 237.308594 161.390625 L 229.347656 161.390625 L 211.367188 192.070312 L 193.390625 161.390625 L 185.429688 161.390625 L 207.96875 199.738281 L 207.96875 236.339844 L 214.8125 236.339844 L 214.8125 199.738281 " fill-opacity="1" fill-rule="nonzero"/></g><path fill="rgb(11.369324%, 12.548828%, 11.759949%)" d="M 155.597656 198.769531 C 153.515625 198.769531 151.824219 200.457031 151.824219 202.53125 C 151.824219 204.609375 153.515625 206.292969 155.597656 206.292969 C 157.679688 206.292969 159.367188 204.609375 159.367188 202.53125 C 159.367188 200.457031 157.679688 198.769531 155.597656 198.769531 " fill-opacity="1" fill-rule="nonzero"/><g clip-path="url(#clip-5)"><path fill="rgb(11.369324%, 12.548828%, 11.759949%)" d="M 167.917969 191.144531 L 182.226562 172.558594 L 182.226562 209.726562 Z M 182.226562 161.390625 L 182.226562 161.445312 L 182.160156 161.394531 L 163.589844 185.515625 L 145.015625 161.390625 L 144.992188 161.40625 L 144.992188 161.390625 L 138.121094 161.390625 L 138.121094 236.335938 L 144.992188 236.335938 L 144.992188 172.621094 L 182.226562 221.042969 L 182.226562 236.335938 L 189.097656 236.335938 L 189.097656 161.390625 L 182.226562 161.390625 " fill-opacity="1" fill-rule="nonzero"/></g><path fill="rgb(3.919983%, 4.309082%, 3.919983%)" d="M 174.675781 72.933594 C 170.335938 72.933594 166.816406 76.441406 166.816406 80.765625 C 166.816406 85.085938 170.335938 88.59375 174.675781 88.59375 C 179.019531 88.59375 182.539062 85.085938 182.539062 80.765625 C 182.539062 76.441406 179.019531 72.933594 174.675781 72.933594 " fill-opacity="1" fill-rule="nonzero"/><g clip-path="url(#clip-6)"><path fill="rgb(3.919983%, 4.309082%, 3.919983%)" d="M 174.675781 146.667969 C 138.183594 146.667969 108.496094 117.101562 108.496094 80.765625 C 108.496094 44.425781 138.183594 14.863281 174.675781 14.863281 C 211.167969 14.863281 240.859375 44.425781 240.859375 80.765625 C 240.859375 117.101562 211.167969 146.667969 174.675781 146.667969 Z M 174.675781 0.601562 C 130.285156 0.601562 94.171875 36.5625 94.171875 80.765625 C 94.171875 124.96875 130.285156 160.929688 174.675781 160.929688 C 219.066406 160.929688 255.179688 124.96875 255.179688 80.765625 C 255.179688 36.5625 219.066406 0.601562 174.675781 0.601562 " fill-opacity="1" fill-rule="nonzero"/></g><g clip-path="url(#clip-7)"><path fill="rgb(3.919983%, 4.309082%, 3.919983%)" d="M 265.40625 160.976562 L 280.128906 160.976562 L 280.128906 0.601562 L 265.40625 0.601562 L 265.40625 160.976562 " fill-opacity="1" fill-rule="nonzero"/></g><g clip-path="url(#clip-8)"><path fill="rgb(3.919983%, 4.309082%, 3.919983%)" d="M 340.101562 88.140625 L 360.003906 88.140625 L 360.003906 114.035156 Z M 360.003906 0.601562 L 360.003906 73.4375 L 294.109375 73.4375 L 294.109375 88.140625 L 321.542969 88.140625 L 360.003906 138.171875 L 360.003906 160.976562 L 374.722656 160.976562 L 374.722656 0.601562 L 360.003906 0.601562 " fill-opacity="1" fill-rule="nonzero"/></g></svg>